<mxfile host="65bd71144e">
    <diagram name="PÃ¡gina-1" id="yESMt9GBMHRnWEEiburn">
        <mxGraphModel dx="965" dy="589" grid="1" gridSize="10" guides="1" tooltips="1" connect="1" arrows="1" fold="1" page="1" pageScale="1" pageWidth="827" pageHeight="1169" background="none" math="0" shadow="0">
            <root>
                <mxCell id="0"/>
                <mxCell id="dclaJgIqaxpQT9fOpFvf-1" parent="0"/>
                <mxCell id="s1k8KY8Xj5q1bk2oyAzz-43" value="NestJS Package" style="shape=folder;fontStyle=1;spacingTop=10;tabWidth=40;tabHeight=14;tabPosition=left;html=1;fontSize=16;align=left;verticalAlign=top;container=0;" parent="dclaJgIqaxpQT9fOpFvf-1" vertex="1">
                    <mxGeometry x="30" y="700" width="230" height="210" as="geometry"/>
                </mxCell>
                <mxCell id="s1k8KY8Xj5q1bk2oyAzz-24" value="" style="group" parent="dclaJgIqaxpQT9fOpFvf-1" vertex="1" connectable="0">
                    <mxGeometry x="510" y="770" width="259" height="130" as="geometry"/>
                </mxCell>
                <mxCell id="s1k8KY8Xj5q1bk2oyAzz-21" value="NestJS Package" style="shape=folder;fontStyle=1;spacingTop=10;tabWidth=40;tabHeight=14;tabPosition=left;html=1;fontSize=16;align=left;verticalAlign=top;" parent="s1k8KY8Xj5q1bk2oyAzz-24" vertex="1">
                    <mxGeometry width="259" height="130" as="geometry"/>
                </mxCell>
                <mxCell id="3CdT-HHU7qoBIwi8riyQ-17" value="Mongoose Module" style="html=1;dropTarget=0;labelBorderColor=none;fontSize=18;" parent="s1k8KY8Xj5q1bk2oyAzz-24" vertex="1">
                    <mxGeometry x="24.5" y="50" width="210" height="60" as="geometry"/>
                </mxCell>
                <mxCell id="3CdT-HHU7qoBIwi8riyQ-18" value="" style="shape=module;jettyWidth=8;jettyHeight=4;labelBorderColor=none;fontSize=18;html=1;" parent="3CdT-HHU7qoBIwi8riyQ-17" vertex="1">
                    <mxGeometry x="1" width="20" height="20" relative="1" as="geometry">
                        <mxPoint x="-27" y="7" as="offset"/>
                    </mxGeometry>
                </mxCell>
                <mxCell id="s1k8KY8Xj5q1bk2oyAzz-5" style="edgeStyle=none;curved=1;rounded=0;orthogonalLoop=1;jettySize=auto;html=1;fontSize=12;startSize=8;endSize=8;dashed=1;" parent="dclaJgIqaxpQT9fOpFvf-1" source="3CdT-HHU7qoBIwi8riyQ-65" target="3CdT-HHU7qoBIwi8riyQ-11" edge="1">
                    <mxGeometry relative="1" as="geometry">
                        <mxPoint x="424" y="472.84053156146183" as="sourcePoint"/>
                    </mxGeometry>
                </mxCell>
                <mxCell id="s1k8KY8Xj5q1bk2oyAzz-16" value="" style="group" parent="dclaJgIqaxpQT9fOpFvf-1" vertex="1" connectable="0">
                    <mxGeometry x="40" y="140" width="200" height="240" as="geometry"/>
                </mxCell>
                <mxCell id="s1k8KY8Xj5q1bk2oyAzz-15" value="NestJS Package" style="shape=folder;fontStyle=1;spacingTop=10;tabWidth=40;tabHeight=14;tabPosition=left;html=1;fontSize=16;align=left;verticalAlign=top;" parent="s1k8KY8Xj5q1bk2oyAzz-16" vertex="1">
                    <mxGeometry width="200" height="239.99999999999997" as="geometry"/>
                </mxCell>
                <mxCell id="3CdT-HHU7qoBIwi8riyQ-0" value="Http Module" style="html=1;dropTarget=0;fontSize=18;" parent="s1k8KY8Xj5q1bk2oyAzz-16" vertex="1">
                    <mxGeometry x="10" y="54.54545454545454" width="180" height="76.36363636363636" as="geometry"/>
                </mxCell>
                <mxCell id="3CdT-HHU7qoBIwi8riyQ-1" value="" style="shape=module;jettyWidth=8;jettyHeight=4;fontSize=18;" parent="3CdT-HHU7qoBIwi8riyQ-0" vertex="1">
                    <mxGeometry x="1" width="20" height="20" relative="1" as="geometry">
                        <mxPoint x="-27" y="7" as="offset"/>
                    </mxGeometry>
                </mxCell>
                <object label="Config Module" tooltip="" id="3CdT-HHU7qoBIwi8riyQ-5">
                    <mxCell style="dropTarget=0;fontSize=18;html=1;labelBorderColor=none;" parent="s1k8KY8Xj5q1bk2oyAzz-16" vertex="1">
                        <mxGeometry x="10" y="150" width="180" height="79.09" as="geometry"/>
                    </mxCell>
                </object>
                <mxCell id="3CdT-HHU7qoBIwi8riyQ-6" value="" style="shape=module;jettyWidth=8;jettyHeight=4;fontSize=18;" parent="3CdT-HHU7qoBIwi8riyQ-5" vertex="1">
                    <mxGeometry x="1" width="20" height="20" relative="1" as="geometry">
                        <mxPoint x="-27" y="7" as="offset"/>
                    </mxGeometry>
                </mxCell>
                <mxCell id="s1k8KY8Xj5q1bk2oyAzz-6" style="edgeStyle=none;curved=1;rounded=0;orthogonalLoop=1;jettySize=auto;html=1;fontSize=12;startSize=8;endSize=8;dashed=1;" parent="dclaJgIqaxpQT9fOpFvf-1" source="3CdT-HHU7qoBIwi8riyQ-65" target="3CdT-HHU7qoBIwi8riyQ-15" edge="1">
                    <mxGeometry relative="1" as="geometry">
                        <mxPoint x="383.16666666666674" y="500" as="sourcePoint"/>
                        <mxPoint x="445.37037037037044" y="585" as="targetPoint"/>
                    </mxGeometry>
                </mxCell>
                <mxCell id="s1k8KY8Xj5q1bk2oyAzz-47" style="edgeStyle=none;curved=1;rounded=0;orthogonalLoop=1;jettySize=auto;html=1;fontSize=12;startSize=8;endSize=8;dashed=1;" parent="dclaJgIqaxpQT9fOpFvf-1" source="3CdT-HHU7qoBIwi8riyQ-63" target="3CdT-HHU7qoBIwi8riyQ-15" edge="1">
                    <mxGeometry relative="1" as="geometry">
                        <mxPoint x="350" y="614.9126637554584" as="sourcePoint"/>
                        <mxPoint x="400" y="610" as="targetPoint"/>
                    </mxGeometry>
                </mxCell>
                <mxCell id="3CdT-HHU7qoBIwi8riyQ-14" style="edgeStyle=none;curved=1;rounded=0;orthogonalLoop=1;jettySize=auto;html=1;fontSize=18;startSize=8;endSize=8;dashed=1;" parent="dclaJgIqaxpQT9fOpFvf-1" source="3CdT-HHU7qoBIwi8riyQ-15" target="3CdT-HHU7qoBIwi8riyQ-11" edge="1">
                    <mxGeometry relative="1" as="geometry">
                        <mxPoint x="530" y="590.3488372093022" as="sourcePoint"/>
                    </mxGeometry>
                </mxCell>
                <mxCell id="s1k8KY8Xj5q1bk2oyAzz-7" style="edgeStyle=none;curved=1;rounded=0;orthogonalLoop=1;jettySize=auto;html=1;fontSize=12;startSize=8;endSize=8;dashed=1;" parent="dclaJgIqaxpQT9fOpFvf-1" source="3CdT-HHU7qoBIwi8riyQ-65" target="3CdT-HHU7qoBIwi8riyQ-63" edge="1">
                    <mxGeometry relative="1" as="geometry">
                        <mxPoint x="339.20000000000005" y="500" as="sourcePoint"/>
                        <mxPoint x="290.55555555555566" y="585" as="targetPoint"/>
                    </mxGeometry>
                </mxCell>
                <mxCell id="3CdT-HHU7qoBIwi8riyQ-51" style="edgeStyle=none;curved=1;rounded=0;orthogonalLoop=1;jettySize=auto;html=1;fontSize=18;endArrow=classic;endFill=1;startSize=8;endSize=8;dashed=1;" parent="dclaJgIqaxpQT9fOpFvf-1" source="3CdT-HHU7qoBIwi8riyQ-63" target="3CdT-HHU7qoBIwi8riyQ-40" edge="1">
                    <mxGeometry relative="1" as="geometry">
                        <mxPoint x="275" y="635" as="sourcePoint"/>
                    </mxGeometry>
                </mxCell>
                <mxCell id="s1k8KY8Xj5q1bk2oyAzz-4" value="" style="edgeStyle=none;curved=1;rounded=0;orthogonalLoop=1;jettySize=auto;html=1;fontSize=12;startSize=8;endSize=8;dashed=1;" parent="dclaJgIqaxpQT9fOpFvf-1" source="3CdT-HHU7qoBIwi8riyQ-65" target="3CdT-HHU7qoBIwi8riyQ-68" edge="1">
                    <mxGeometry relative="1" as="geometry">
                        <mxPoint x="374.909090909091" y="450" as="sourcePoint"/>
                        <mxPoint x="400" y="380" as="targetPoint"/>
                    </mxGeometry>
                </mxCell>
                <mxCell id="s1k8KY8Xj5q1bk2oyAzz-30" value="" style="group" parent="dclaJgIqaxpQT9fOpFvf-1" vertex="1" connectable="0">
                    <mxGeometry x="540" y="140" width="259" height="130" as="geometry"/>
                </mxCell>
                <mxCell id="s1k8KY8Xj5q1bk2oyAzz-31" value="NestJS Package" style="shape=folder;fontStyle=1;spacingTop=10;tabWidth=40;tabHeight=14;tabPosition=left;html=1;fontSize=16;align=left;verticalAlign=top;" parent="s1k8KY8Xj5q1bk2oyAzz-30" vertex="1">
                    <mxGeometry width="259" height="130" as="geometry"/>
                </mxCell>
                <mxCell id="3CdT-HHU7qoBIwi8riyQ-53" value="Mongoose Module" style="html=1;dropTarget=0;labelBorderColor=none;fontSize=18;" parent="s1k8KY8Xj5q1bk2oyAzz-30" vertex="1">
                    <mxGeometry x="24.25" y="50" width="210.5" height="60" as="geometry"/>
                </mxCell>
                <mxCell id="3CdT-HHU7qoBIwi8riyQ-54" value="" style="shape=module;jettyWidth=8;jettyHeight=4;labelBorderColor=none;fontSize=18;html=1;" parent="3CdT-HHU7qoBIwi8riyQ-53" vertex="1">
                    <mxGeometry x="1" width="20" height="20" relative="1" as="geometry">
                        <mxPoint x="-27" y="7" as="offset"/>
                    </mxGeometry>
                </mxCell>
                <mxCell id="s1k8KY8Xj5q1bk2oyAzz-49" value="MODULE DIAGRAM" style="text;strokeColor=none;align=center;fillColor=none;html=1;verticalAlign=middle;whiteSpace=wrap;rounded=0;fontSize=18;fontStyle=5" parent="dclaJgIqaxpQT9fOpFvf-1" vertex="1">
                    <mxGeometry x="300" y="40" width="200" height="30" as="geometry"/>
                </mxCell>
                <mxCell id="3CdT-HHU7qoBIwi8riyQ-7" value="" style="rounded=0;orthogonalLoop=1;jettySize=auto;html=1;endArrow=none;endFill=0;sketch=0;sourcePerimeterSpacing=0;targetPerimeterSpacing=0;fontSize=18;startSize=8;endSize=8;curved=1;exitX=0.5;exitY=1;exitDx=0;exitDy=0;" parent="dclaJgIqaxpQT9fOpFvf-1" source="3CdT-HHU7qoBIwi8riyQ-5" target="3CdT-HHU7qoBIwi8riyQ-9" edge="1">
                    <mxGeometry relative="1" as="geometry">
                        <mxPoint x="180" y="475" as="sourcePoint"/>
                    </mxGeometry>
                </mxCell>
                <mxCell id="3CdT-HHU7qoBIwi8riyQ-8" value="" style="rounded=0;orthogonalLoop=1;jettySize=auto;html=1;endArrow=halfCircle;endFill=0;entryX=0.5;entryY=0.5;endSize=6;strokeWidth=1;sketch=0;fontSize=18;curved=1;" parent="dclaJgIqaxpQT9fOpFvf-1" source="3CdT-HHU7qoBIwi8riyQ-65" target="3CdT-HHU7qoBIwi8riyQ-9" edge="1">
                    <mxGeometry relative="1" as="geometry">
                        <mxPoint x="294" y="455.59701492537306" as="sourcePoint"/>
                    </mxGeometry>
                </mxCell>
                <mxCell id="3CdT-HHU7qoBIwi8riyQ-9" value="" style="ellipse;whiteSpace=wrap;html=1;align=center;aspect=fixed;resizable=0;points=[];outlineConnect=0;sketch=0;labelBorderColor=none;fontSize=18;" parent="dclaJgIqaxpQT9fOpFvf-1" vertex="1">
                    <mxGeometry x="220" y="430" width="10" height="10" as="geometry"/>
                </mxCell>
                <mxCell id="3CdT-HHU7qoBIwi8riyQ-11" value="Products Module" style="html=1;dropTarget=0;labelBorderColor=none;fontSize=18;" parent="dclaJgIqaxpQT9fOpFvf-1" vertex="1">
                    <mxGeometry x="570" y="430" width="210" height="70" as="geometry"/>
                </mxCell>
                <mxCell id="3CdT-HHU7qoBIwi8riyQ-12" value="" style="shape=module;jettyWidth=8;jettyHeight=4;labelBorderColor=none;fontSize=18;html=1;" parent="3CdT-HHU7qoBIwi8riyQ-11" vertex="1">
                    <mxGeometry x="1" width="20" height="20" relative="1" as="geometry">
                        <mxPoint x="-27" y="7" as="offset"/>
                    </mxGeometry>
                </mxCell>
                <mxCell id="3CdT-HHU7qoBIwi8riyQ-15" value="Users Module" style="html=1;dropTarget=0;labelBorderColor=none;fontSize=18;" parent="dclaJgIqaxpQT9fOpFvf-1" vertex="1">
                    <mxGeometry x="414" y="600" width="180" height="50" as="geometry"/>
                </mxCell>
                <mxCell id="3CdT-HHU7qoBIwi8riyQ-16" value="" style="shape=module;jettyWidth=8;jettyHeight=4;labelBorderColor=none;fontSize=18;html=1;" parent="3CdT-HHU7qoBIwi8riyQ-15" vertex="1">
                    <mxGeometry x="1" width="20" height="20" relative="1" as="geometry">
                        <mxPoint x="-27" y="7" as="offset"/>
                    </mxGeometry>
                </mxCell>
                <mxCell id="3CdT-HHU7qoBIwi8riyQ-29" style="edgeStyle=none;curved=1;rounded=0;orthogonalLoop=1;jettySize=auto;html=1;fontSize=18;startSize=8;endSize=8;endArrow=none;endFill=0;" parent="dclaJgIqaxpQT9fOpFvf-1" source="3CdT-HHU7qoBIwi8riyQ-28" target="3CdT-HHU7qoBIwi8riyQ-17" edge="1">
                    <mxGeometry relative="1" as="geometry"/>
                </mxCell>
                <mxCell id="3CdT-HHU7qoBIwi8riyQ-30" style="edgeStyle=none;curved=1;rounded=0;orthogonalLoop=1;jettySize=auto;html=1;fontSize=18;endArrow=none;endFill=0;startSize=8;endSize=8;" parent="dclaJgIqaxpQT9fOpFvf-1" source="3CdT-HHU7qoBIwi8riyQ-28" target="3CdT-HHU7qoBIwi8riyQ-15" edge="1">
                    <mxGeometry relative="1" as="geometry"/>
                </mxCell>
                <mxCell id="3CdT-HHU7qoBIwi8riyQ-39" style="edgeStyle=none;curved=1;rounded=0;orthogonalLoop=1;jettySize=auto;html=1;fontSize=18;endArrow=none;endFill=0;startSize=8;endSize=8;" parent="dclaJgIqaxpQT9fOpFvf-1" source="3CdT-HHU7qoBIwi8riyQ-28" target="3CdT-HHU7qoBIwi8riyQ-11" edge="1">
                    <mxGeometry relative="1" as="geometry"/>
                </mxCell>
                <mxCell id="3CdT-HHU7qoBIwi8riyQ-28" value="" style="shape=providedRequiredInterface;html=1;verticalLabelPosition=bottom;sketch=0;labelBorderColor=none;fontSize=18;rotation=-125;" parent="dclaJgIqaxpQT9fOpFvf-1" vertex="1">
                    <mxGeometry x="629.5" y="710" width="20" height="20" as="geometry"/>
                </mxCell>
                <mxCell id="3CdT-HHU7qoBIwi8riyQ-31" value="forFeature()" style="text;strokeColor=none;align=center;fillColor=none;html=1;verticalAlign=middle;whiteSpace=wrap;rounded=0;fontSize=18;" parent="dclaJgIqaxpQT9fOpFvf-1" vertex="1">
                    <mxGeometry x="649" y="710" width="120" height="30" as="geometry"/>
                </mxCell>
                <mxCell id="3CdT-HHU7qoBIwi8riyQ-49" style="edgeStyle=none;curved=1;rounded=0;orthogonalLoop=1;jettySize=auto;html=1;exitX=1;exitY=0.5;exitDx=0;exitDy=0;entryX=0.283;entryY=0.318;entryDx=0;entryDy=0;entryPerimeter=0;fontSize=18;endArrow=none;endFill=0;startSize=8;endSize=8;" parent="dclaJgIqaxpQT9fOpFvf-1" source="3CdT-HHU7qoBIwi8riyQ-42" target="3CdT-HHU7qoBIwi8riyQ-47" edge="1">
                    <mxGeometry relative="1" as="geometry"/>
                </mxCell>
                <mxCell id="3CdT-HHU7qoBIwi8riyQ-42" value="JWT Module" style="html=1;dropTarget=0;labelBorderColor=none;fontSize=18;" parent="dclaJgIqaxpQT9fOpFvf-1" vertex="1">
                    <mxGeometry x="47.5" y="830" width="195" height="60" as="geometry"/>
                </mxCell>
                <mxCell id="3CdT-HHU7qoBIwi8riyQ-43" value="" style="shape=module;jettyWidth=8;jettyHeight=4;labelBorderColor=none;fontSize=18;html=1;" parent="3CdT-HHU7qoBIwi8riyQ-42" vertex="1">
                    <mxGeometry x="1" width="20" height="20" relative="1" as="geometry">
                        <mxPoint x="-27" y="7" as="offset"/>
                    </mxGeometry>
                </mxCell>
                <mxCell id="3CdT-HHU7qoBIwi8riyQ-44" value="" style="group" parent="dclaJgIqaxpQT9fOpFvf-1" vertex="1" connectable="0">
                    <mxGeometry x="47.5" y="750" width="195" height="60" as="geometry"/>
                </mxCell>
                <mxCell id="3CdT-HHU7qoBIwi8riyQ-40" value="Passport Module" style="html=1;dropTarget=0;labelBorderColor=none;fontSize=18;container=0;" parent="3CdT-HHU7qoBIwi8riyQ-44" vertex="1">
                    <mxGeometry width="195" height="60" as="geometry"/>
                </mxCell>
                <mxCell id="3CdT-HHU7qoBIwi8riyQ-41" value="" style="shape=module;jettyWidth=8;jettyHeight=4;labelBorderColor=none;fontSize=18;html=1;container=0;" parent="3CdT-HHU7qoBIwi8riyQ-44" vertex="1">
                    <mxGeometry x="168.67499999999998" y="7" width="19.5" height="20" as="geometry">
                        <mxPoint x="-27" y="7" as="offset"/>
                    </mxGeometry>
                </mxCell>
                <mxCell id="3CdT-HHU7qoBIwi8riyQ-45" style="edgeStyle=none;curved=1;rounded=0;orthogonalLoop=1;jettySize=auto;html=1;exitX=0.5;exitY=0;exitDx=0;exitDy=0;fontSize=18;endArrow=none;endFill=0;startSize=8;endSize=8;" parent="dclaJgIqaxpQT9fOpFvf-1" source="3CdT-HHU7qoBIwi8riyQ-42" target="3CdT-HHU7qoBIwi8riyQ-42" edge="1">
                    <mxGeometry relative="1" as="geometry"/>
                </mxCell>
                <mxCell id="3CdT-HHU7qoBIwi8riyQ-50" style="edgeStyle=none;curved=1;rounded=0;orthogonalLoop=1;jettySize=auto;html=1;exitX=1;exitY=0.5;exitDx=0;exitDy=0;exitPerimeter=0;fontSize=18;endArrow=none;endFill=0;startSize=8;endSize=8;" parent="dclaJgIqaxpQT9fOpFvf-1" source="3CdT-HHU7qoBIwi8riyQ-47" target="3CdT-HHU7qoBIwi8riyQ-63" edge="1">
                    <mxGeometry relative="1" as="geometry">
                        <mxPoint x="283.5716422426317" y="635" as="targetPoint"/>
                    </mxGeometry>
                </mxCell>
                <mxCell id="3CdT-HHU7qoBIwi8riyQ-47" value="" style="shape=providedRequiredInterface;html=1;verticalLabelPosition=bottom;sketch=0;labelBorderColor=none;fontSize=18;rotation=-85;" parent="dclaJgIqaxpQT9fOpFvf-1" vertex="1">
                    <mxGeometry x="319" y="770" width="20" height="20" as="geometry"/>
                </mxCell>
                <mxCell id="3CdT-HHU7qoBIwi8riyQ-48" value="registerAsync()" style="text;strokeColor=none;align=center;fillColor=none;html=1;verticalAlign=middle;whiteSpace=wrap;rounded=0;fontSize=18;" parent="dclaJgIqaxpQT9fOpFvf-1" vertex="1">
                    <mxGeometry x="350" y="790" width="60" height="30" as="geometry"/>
                </mxCell>
                <mxCell id="3CdT-HHU7qoBIwi8riyQ-52" value="forRoot()" style="text;strokeColor=none;align=center;fillColor=none;html=1;verticalAlign=middle;whiteSpace=wrap;rounded=0;fontSize=18;" parent="dclaJgIqaxpQT9fOpFvf-1" vertex="1">
                    <mxGeometry x="170" y="440" width="60" height="30" as="geometry"/>
                </mxCell>
                <mxCell id="3CdT-HHU7qoBIwi8riyQ-55" value="forRootAsync()" style="text;strokeColor=none;align=center;fillColor=none;html=1;verticalAlign=middle;whiteSpace=wrap;rounded=0;fontSize=18;" parent="dclaJgIqaxpQT9fOpFvf-1" vertex="1">
                    <mxGeometry x="710" y="350" width="60" height="30" as="geometry"/>
                </mxCell>
                <mxCell id="3CdT-HHU7qoBIwi8riyQ-62" style="edgeStyle=none;curved=1;rounded=0;orthogonalLoop=1;jettySize=auto;html=1;exitX=1;exitY=0.5;exitDx=0;exitDy=0;exitPerimeter=0;fontSize=18;endArrow=none;endFill=0;startSize=8;endSize=8;" parent="dclaJgIqaxpQT9fOpFvf-1" source="3CdT-HHU7qoBIwi8riyQ-60" target="3CdT-HHU7qoBIwi8riyQ-68" edge="1">
                    <mxGeometry relative="1" as="geometry">
                        <mxPoint x="490" y="357.09666819015183" as="targetPoint"/>
                    </mxGeometry>
                </mxCell>
                <mxCell id="3CdT-HHU7qoBIwi8riyQ-60" value="" style="shape=providedRequiredInterface;html=1;verticalLabelPosition=bottom;sketch=0;labelBorderColor=none;fontSize=18;rotation=-185;" parent="dclaJgIqaxpQT9fOpFvf-1" vertex="1">
                    <mxGeometry x="652" y="350" width="20" height="20" as="geometry"/>
                </mxCell>
                <mxCell id="3CdT-HHU7qoBIwi8riyQ-61" style="edgeStyle=none;curved=1;rounded=0;orthogonalLoop=1;jettySize=auto;html=1;fontSize=18;endArrow=none;endFill=0;startSize=8;endSize=8;entryX=0.021;entryY=0.809;entryDx=0;entryDy=0;entryPerimeter=0;" parent="dclaJgIqaxpQT9fOpFvf-1" source="3CdT-HHU7qoBIwi8riyQ-53" target="3CdT-HHU7qoBIwi8riyQ-60" edge="1">
                    <mxGeometry relative="1" as="geometry">
                        <mxPoint x="700" y="330" as="targetPoint"/>
                    </mxGeometry>
                </mxCell>
                <mxCell id="3CdT-HHU7qoBIwi8riyQ-63" value="Auth Module" style="html=1;dropTarget=0;labelBorderColor=none;fontSize=18;" parent="dclaJgIqaxpQT9fOpFvf-1" vertex="1">
                    <mxGeometry x="170" y="570" width="180" height="60" as="geometry"/>
                </mxCell>
                <mxCell id="3CdT-HHU7qoBIwi8riyQ-64" value="" style="shape=module;jettyWidth=8;jettyHeight=4;labelBorderColor=none;fontSize=18;html=1;" parent="3CdT-HHU7qoBIwi8riyQ-63" vertex="1">
                    <mxGeometry x="1" width="20" height="20" relative="1" as="geometry">
                        <mxPoint x="-27" y="7" as="offset"/>
                    </mxGeometry>
                </mxCell>
                <mxCell id="3CdT-HHU7qoBIwi8riyQ-65" value="App Module" style="html=1;dropTarget=0;labelBorderColor=none;fontSize=18;" parent="dclaJgIqaxpQT9fOpFvf-1" vertex="1">
                    <mxGeometry x="310" y="430" width="180" height="90" as="geometry"/>
                </mxCell>
                <mxCell id="3CdT-HHU7qoBIwi8riyQ-66" value="" style="shape=module;jettyWidth=8;jettyHeight=4;labelBorderColor=none;fontSize=18;html=1;" parent="3CdT-HHU7qoBIwi8riyQ-65" vertex="1">
                    <mxGeometry x="1" width="20" height="20" relative="1" as="geometry">
                        <mxPoint x="-27" y="7" as="offset"/>
                    </mxGeometry>
                </mxCell>
                <mxCell id="3CdT-HHU7qoBIwi8riyQ-68" value="Database Module" style="html=1;dropTarget=0;labelBorderColor=none;fontSize=18;" parent="dclaJgIqaxpQT9fOpFvf-1" vertex="1">
                    <mxGeometry x="300" y="330" width="219" height="60" as="geometry"/>
                </mxCell>
                <mxCell id="3CdT-HHU7qoBIwi8riyQ-69" value="" style="shape=module;jettyWidth=8;jettyHeight=4;labelBorderColor=none;fontSize=18;html=1;" parent="3CdT-HHU7qoBIwi8riyQ-68" vertex="1">
                    <mxGeometry x="1" width="20" height="20" relative="1" as="geometry">
                        <mxPoint x="-27" y="7" as="offset"/>
                    </mxGeometry>
                </mxCell>
                <mxCell id="s1k8KY8Xj5q1bk2oyAzz-0" value="@Global" style="text;strokeColor=none;align=center;fillColor=none;html=1;verticalAlign=middle;whiteSpace=wrap;rounded=0;fontSize=16;" parent="dclaJgIqaxpQT9fOpFvf-1" vertex="1">
                    <mxGeometry x="299" y="300" width="60" height="30" as="geometry"/>
                </mxCell>
            </root>
        </mxGraphModel>
    </diagram>
</mxfile>
